<svg xmlns="http://www.w3.org/2000/svg" viewBox="0 0 48 48"><radialGradient id="lekld~3GkdQe_M6i5SLraa" cx="24" cy="24" r="18" fx="23.905" fy="16.289" gradientUnits="userSpaceOnUse"><stop offset="0" stop-color="#ffe16e"/><stop offset=".629" stop-color="#ffd426"/><stop offset=".72" stop-color="#fdcd23"/><stop offset=".854" stop-color="#f8b919"/><stop offset="1" stop-color="#f09c0c"/></radialGradient><circle cx="24" cy="24" r="18" fill="url(#lekld~3GkdQe_M6i5SLraa)"/><radialGradient id="lekld~3GkdQe_M6i5SLrab" cx="36" cy="29" r="5" gradientUnits="userSpaceOnUse"><stop offset="0" stop-color="#ff8400" stop-opacity=".6"/><stop offset=".999" stop-color="#ff8400" stop-opacity="0"/></radialGradient><circle cx="36" cy="29" r="5" fill="url(#lekld~3GkdQe_M6i5SLrab)"/><radialGradient id="lekld~3GkdQe_M6i5SLrac" cx="12" cy="29" r="5" gradientUnits="userSpaceOnUse"><stop offset="0" stop-color="#ff8400" stop-opacity=".5"/><stop offset=".999" stop-color="#ff8400" stop-opacity="0"/></radialGradient><circle cx="12" cy="29" r="5" fill="url(#lekld~3GkdQe_M6i5SLrac)"/><radialGradient id="lekld~3GkdQe_M6i5SLrad" cx="23.988" cy="29.43" r="5.577" fx="23.984" fy="29.639" gradientUnits="userSpaceOnUse"><stop offset=".914" stop-color="#ffe16e"/><stop offset="1" stop-color="#ffe16e" stop-opacity="0"/></radialGradient><path fill="url(#lekld~3GkdQe_M6i5SLrad)" d="M24,33c-4.106,0-5.336-1.456-5.336-1.456S19.98,35,24,35l0-0.001V35c4.02,0,5.336-3.456,5.336-3.456S28.106,33,24,33z"/><radialGradient id="lekld~3GkdQe_M6i5SLrae" cx="24.046" cy="31.778" r="5.044" gradientUnits="userSpaceOnUse"><stop offset=".696" stop-color="#cc9000"/><stop offset="1" stop-color="#cc9000" stop-opacity="0"/></radialGradient><path fill="url(#lekld~3GkdQe_M6i5SLrae)" d="M24,35c-3.51,0-5-2.767-5-2.767S20.058,37,24,37s5-4.767,5-4.767S27.51,35,24,35z"/><radialGradient id="lekld~3GkdQe_M6i5SLraf" cx="-1287.463" cy="28.913" r="15.654" gradientTransform="matrix(-.35 0 0 .1877 -426.596 26.03)" gradientUnits="userSpaceOnUse"><stop offset="0" stop-color="#1c1911"/><stop offset=".999" stop-color="#171714"/></radialGradient><path fill="url(#lekld~3GkdQe_M6i5SLraf)" d="M19.299,30.805c-0.501-0.276-0.995,0.358-0.608,0.779C19.815,32.806,21.542,34,24,34s4.185-1.194,5.309-2.416c0.387-0.421-0.107-1.055-0.608-0.779C27.55,31.441,25.976,32,24,32S20.45,31.441,19.299,30.805z"/><circle cx="34.5" cy="24.5" r=".5" fill="#212121"/><path fill="#212121" d="M27.742,24.939c0,0,1.726-0.944,3.258-0.944s3.258,0.944,3.258,0.944l0.631-0.754 c0,0-1.765-2.185-3.889-2.185s-3.889,2.185-3.889,2.185L27.742,24.939z"/><circle cx="27.5" cy="24.5" r=".5" fill="#212121"/><g><circle cx="20.5" cy="24.5" r=".5" fill="#212121"/><path fill="#212121" d="M13.742,24.939c0,0,1.726-0.944,3.258-0.944s3.258,0.944,3.258,0.944l0.631-0.754 c0,0-1.765-2.185-3.889-2.185s-3.889,2.185-3.889,2.185L13.742,24.939z"/><circle cx="13.5" cy="24.5" r=".5" fill="#212121"/></g></svg>