<svg xmlns="http://www.w3.org/2000/svg" viewBox="0 0 48 48"><radialGradient id="sDb5oIIbYJ8_nffIvbhrXa" cx="-112" cy="24" r="18" fx="-112.095" fy="16.289" gradientTransform="matrix(-1 0 0 1 -88 0)" gradientUnits="userSpaceOnUse"><stop offset="0" stop-color="#ffe16e"/><stop offset=".629" stop-color="#ffd226"/><stop offset=".75" stop-color="#fdcd23"/><stop offset=".899" stop-color="#f6bd1b"/><stop offset=".999" stop-color="#f0af13"/></radialGradient><circle cx="24" cy="24" r="18" fill="url(#sDb5oIIbYJ8_nffIvbhrXa)"/><path fill="#805b2a" d="M36.165,17.871c-0.534-0.388-1.204-0.729-1.858-0.95c-0.663-0.226-1.352-0.34-2.027-0.338 c-0.674,0.003-1.341,0.1-1.965,0.34c-0.633,0.204-1.212,0.564-1.771,0.935l-0.055,0.036c-0.469,0.311-1.101,0.183-1.412-0.286 c-0.311-0.469-0.183-1.101,0.286-1.412c0.03-0.02,0.062-0.038,0.093-0.055c0.754-0.392,1.532-0.751,2.379-0.926 c0.831-0.21,1.707-0.241,2.547-0.145c0.842,0.096,1.656,0.334,2.401,0.686c0.75,0.361,1.416,0.787,2.053,1.372 c0.203,0.186,0.216,0.502,0.03,0.705c-0.173,0.189-0.458,0.213-0.66,0.066L36.165,17.871z"/><path fill="#805b2a" d="M11.165,17.129c0.636-0.585,1.302-1.011,2.053-1.372c0.745-0.352,1.558-0.591,2.401-0.686 c0.84-0.096,1.716-0.065,2.547,0.145c0.846,0.175,1.625,0.534,2.379,0.926c0.499,0.26,0.693,0.875,0.433,1.374 c-0.26,0.499-0.875,0.693-1.374,0.433c-0.032-0.017-0.062-0.035-0.092-0.054l-0.056-0.037c-0.559-0.371-1.138-0.731-1.771-0.935 c-0.624-0.24-1.291-0.337-1.965-0.34c-0.675-0.002-1.363,0.112-2.027,0.338c-0.654,0.221-1.324,0.562-1.858,0.95L11.796,17.9 c-0.223,0.162-0.535,0.112-0.697-0.111C10.949,17.582,10.981,17.298,11.165,17.129z"/><path fill="#fff" d="M35,21c0,2.209-1.791,4-4,4s-4-1.791-4-4c0,0,1.791-1,4-1S35,21,35,21z"/><path fill="#212121" d="M29.156,20.224C29.056,20.463,29,20.725,29,21c0,1.105,0.895,2,2,2s2-0.895,2-2c0-0.275-0.056-0.537-0.156-0.776C32.29,20.096,31.669,20,31,20S29.71,20.096,29.156,20.224z"/><path fill="#fff" d="M13,21c0,2.209,1.791,4,4,4s4-1.791,4-4c0,0-1.791-1-4-1S13,21,13,21z"/><path fill="#212121" d="M18.844,20.224C18.944,20.463,19,20.725,19,21c0,1.105-0.895,2-2,2s-2-0.895-2-2c0-0.275,0.056-0.537,0.156-0.776C15.71,20.096,16.331,20,17,20S18.29,20.096,18.844,20.224z"/><radialGradient id="sDb5oIIbYJ8_nffIvbhrXb" cx="23.998" cy="30.054" r="3.326" gradientTransform="matrix(.0157 1.116 -3.2952 .1212 122.656 -.714)" gradientUnits="userSpaceOnUse"><stop offset=".629" stop-color="#ffe16e"/><stop offset=".871" stop-color="#ffe16e" stop-opacity="0"/></radialGradient><path fill="url(#sDb5oIIbYJ8_nffIvbhrXb)" d="M19.17,32.252c0,0,1.116,0.748,4.83,0.748c3.44,0,4.827-0.748,4.827-0.748s-0.863-1.485-4.827-1.485S19.17,32.252,19.17,32.252z"/><radialGradient id="sDb5oIIbYJ8_nffIvbhrXc" cx="295.964" cy="-390.793" r="8.277" gradientTransform="matrix(-.618 0 0 -.3776 206.92 -116.774)" gradientUnits="userSpaceOnUse"><stop offset=".284" stop-color="#cc9000"/><stop offset="1" stop-color="#cc9000" stop-opacity="0"/></radialGradient><path fill="url(#sDb5oIIbYJ8_nffIvbhrXc)" d="M24,32c3.392,0,4.31,0.609,4.31,0.609S27.43,34,24,34s-4.31-1.391-4.31-1.391S20.608,32,24,32z"/><radialGradient id="sDb5oIIbYJ8_nffIvbhrXd" cx="-1025.17" cy="168.399" r="15.654" gradientTransform="matrix(.35 0 0 -.1877 382.797 63.149)" gradientUnits="userSpaceOnUse"><stop offset="0" stop-color="#1c1911"/><stop offset=".999" stop-color="#171714"/></radialGradient><path fill="url(#sDb5oIIbYJ8_nffIvbhrXd)" d="M28.701,32.195c0.501,0.276,0.995-0.358,0.608-0.779C28.185,30.194,26.458,29,24,29s-4.185,1.194-5.309,2.416c-0.387,0.421,0.107,1.055,0.608,0.779C20.45,31.559,22.024,31,24,31S27.55,31.559,28.701,32.195z"/></svg>