<svg xmlns="http://www.w3.org/2000/svg" viewBox="0 0 48 48"><radialGradient id="6RfME4lB62ffUFLP0Lwesa" cx="160" cy="24" r="18" fx="159.905" fy="16.289" gradientTransform="translate(-136)" gradientUnits="userSpaceOnUse"><stop offset="0" stop-color="#ffe16e"/><stop offset=".629" stop-color="#ffd426"/><stop offset=".72" stop-color="#fdcd23"/><stop offset=".854" stop-color="#f8b919"/><stop offset="1" stop-color="#f09c0c"/></radialGradient><circle cx="24" cy="24" r="18" fill="url(#6RfME4lB62ffUFLP0Lwesa)"/><radialGradient id="6RfME4lB62ffUFLP0Lwesb" cx="-159.728" cy="-3.574" r="3.326" gradientTransform="matrix(.0157 1.116 -3.2952 .1212 14.724 210.401)" gradientUnits="userSpaceOnUse"><stop offset=".629" stop-color="#ffe16e"/><stop offset=".871" stop-color="#ffe16e" stop-opacity="0"/></radialGradient><path fill="url(#6RfME4lB62ffUFLP0Lwesb)" d="M19.17,34.252c0,0,1.116,0.748,4.83,0.748c3.44,0,4.827-0.748,4.827-0.748s-0.863-1.485-4.827-1.485S19.17,34.252,19.17,34.252z"/><radialGradient id="6RfME4lB62ffUFLP0Lwesc" cx="1364.189" cy="-1072.793" r="8.277" gradientTransform="matrix(-.618 0 0 -.3776 867.052 -372.304)" gradientUnits="userSpaceOnUse"><stop offset=".284" stop-color="#cc9000"/><stop offset="1" stop-color="#cc9000" stop-opacity="0"/></radialGradient><path fill="url(#6RfME4lB62ffUFLP0Lwesc)" d="M24,34c3.392,0,4.31,0.609,4.31,0.609S27.43,36,24,36s-4.31-1.391-4.31-1.391S20.608,34,24,34z"/><radialGradient id="6RfME4lB62ffUFLP0Lwesd" cx="-1782.926" cy="-855.625" r="15.654" gradientTransform="matrix(.35 0 0 -.1877 648.002 -127.043)" gradientUnits="userSpaceOnUse"><stop offset="0" stop-color="#1c1911"/><stop offset=".999" stop-color="#171714"/></radialGradient><path fill="url(#6RfME4lB62ffUFLP0Lwesd)" d="M28.701,34.195c0.501,0.276,0.995-0.358,0.608-0.779C28.185,32.194,26.458,31,24,31s-4.185,1.194-5.309,2.416c-0.387,0.421,0.107,1.055,0.608,0.779C20.45,33.559,22.024,33,24,33S27.55,33.559,28.701,34.195z"/><circle cx="27.5" cy="23.5" r=".5" fill="#212121"/><path fill="#212121" d="M34.5,25c0,0-0.875,0.005-1.656,0.005c-2.343,0-5.102-1.944-5.102-1.944l-0.682,0.668 c0,0,1.07,3.271,3.94,3.271c2.124,0,3.773-1.08,3.773-1.08L34.5,25z"/><circle cx="34.5" cy="25.5" r=".5" fill="#212121"/><g><circle cx="20.5" cy="23.5" r=".5" fill="#212121"/><path fill="#212121" d="M13.5,25c0,0,0.875,0.005,1.656,0.005c2.343,0,5.102-1.944,5.102-1.944l0.682,0.668 c0,0-1.07,3.271-3.94,3.271c-2.124,0-3.773-1.08-3.773-1.08L13.5,25z"/><circle cx="13.5" cy="25.5" r=".5" fill="#212121"/></g></svg>