<svg xmlns="http://www.w3.org/2000/svg" viewBox="0 0 48 48"><radialGradient id="MrbNbP29PshHWRLVH7dKra" cx="24" cy="24" r="18" fx="23.905" fy="16.289" gradientTransform="matrix(-1 0 0 1 48 0)" gradientUnits="userSpaceOnUse"><stop offset="0" stop-color="#ffe16e"/><stop offset=".629" stop-color="#ffd226"/><stop offset=".75" stop-color="#fdcd23"/><stop offset=".899" stop-color="#f6bd1b"/><stop offset=".999" stop-color="#f0af13"/></radialGradient><circle cx="24" cy="24" r="18" fill="url(#MrbNbP29PshHWRLVH7dKra)"/><radialGradient id="MrbNbP29PshHWRLVH7dKrb" cx="24.019" cy="30.448" r="10.607" gradientTransform="matrix(1.0906 0 0 1.6895 -2.174 -28.269)" gradientUnits="userSpaceOnUse"><stop offset=".885" stop-color="#cc9000"/><stop offset="1" stop-color="#cc9000" stop-opacity="0"/></radialGradient><path fill="url(#MrbNbP29PshHWRLVH7dKrb)" d="M24,39c-7.653,0-10-7.683-10-7.683S16.255,41,24,41s10-9.683,10-9.683S31.653,39,24,39z"/><circle cx="30" cy="24" r="4" fill="#fff"/><circle cx="30" cy="24" r="2" fill="#212121"/><circle cx="18" cy="24" r="4" fill="#fff"/><circle cx="18" cy="24" r="2" fill="#212121"/><radialGradient id="MrbNbP29PshHWRLVH7dKrc" cx="23.926" cy="24.461" r="14.906" gradientTransform="matrix(-.0057 .9707 -.7563 -.0044 42.564 1.772)" gradientUnits="userSpaceOnUse"><stop offset=".371" stop-color="#ffd226"/><stop offset=".871" stop-color="#ffe16e"/><stop offset=".939" stop-color="#ffe16e"/><stop offset="1" stop-color="#ffe16e" stop-opacity="0"/></radialGradient><path fill="url(#MrbNbP29PshHWRLVH7dKrc)" d="M33.979,31.235c0,0-2.352,7.765-9.979,7.765s-9.951-7.765-9.951-7.765L24,32.426L33.979,31.235z"/><radialGradient id="MrbNbP29PshHWRLVH7dKrd" cx="29.01" cy="29.835" r="7.164" gradientUnits="userSpaceOnUse"><stop offset="0" stop-color="#1c1911"/><stop offset=".999" stop-color="#171714"/></radialGradient><path fill="url(#MrbNbP29PshHWRLVH7dKrd)" d="M24,38c6.44,0,9.885-6.527,9.885-6.527l-1.378-1.344c0,0-3.202,1.871-8.507,1.871V38z"/><radialGradient id="MrbNbP29PshHWRLVH7dKre" cx="33.014" cy="29.925" r="1.731" gradientUnits="userSpaceOnUse"><stop offset="0" stop-color="#1c1911"/><stop offset=".999" stop-color="#171714"/></radialGradient><circle cx="33" cy="31" r="1" fill="url(#MrbNbP29PshHWRLVH7dKre)"/><radialGradient id="MrbNbP29PshHWRLVH7dKrf" cx="29.01" cy="29.835" r="7.164" gradientTransform="matrix(-1 0 0 1 48 0)" gradientUnits="userSpaceOnUse"><stop offset="0" stop-color="#1c1911"/><stop offset=".999" stop-color="#171714"/></radialGradient><path fill="url(#MrbNbP29PshHWRLVH7dKrf)" d="M24,38c-6.44,0-9.885-6.527-9.885-6.527l1.378-1.344c0,0,3.202,1.871,8.507,1.871V38z"/><radialGradient id="MrbNbP29PshHWRLVH7dKrg" cx="33.014" cy="29.925" r="1.731" gradientTransform="matrix(-1 0 0 1 48 0)" gradientUnits="userSpaceOnUse"><stop offset="0" stop-color="#1c1911"/><stop offset=".999" stop-color="#171714"/></radialGradient><circle cx="15" cy="31" r="1" fill="url(#MrbNbP29PshHWRLVH7dKrg)"/><radialGradient id="MrbNbP29PshHWRLVH7dKrh" cx="23.707" cy="17.269" r="26.713" gradientTransform="matrix(0 1 -.9954 0 40.896 -6.438)" gradientUnits="userSpaceOnUse"><stop offset=".575" stop-color="#210003"/><stop offset=".632" stop-color="#7d000a"/><stop offset=".677" stop-color="#b01c28"/><stop offset=".684" stop-color="#c5333f"/><stop offset=".725" stop-color="#db515d"/><stop offset=".796" stop-color="#ff828c"/><stop offset=".836" stop-color="#f4747e"/><stop offset=".91" stop-color="#d8505b"/><stop offset="1" stop-color="#b01c28"/></radialGradient><path fill="url(#MrbNbP29PshHWRLVH7dKrh)" d="M27.993,32.765C26.848,32.91,25.53,33,24,33s-2.848-0.09-3.993-0.235c0,0-1.007,2.692-1.007,6.235c0,2.745,2.239,5,5,5s5-2.255,5-5C29,35.457,27.993,32.765,27.993,32.765z"/><linearGradient id="MrbNbP29PshHWRLVH7dKri" x1="24" x2="24" y1="32.958" y2="40.57" gradientUnits="userSpaceOnUse"><stop offset="0" stop-color="#0d0003"/><stop offset=".325" stop-color="#7d001b"/><stop offset=".329" stop-color="#8a001e"/><stop offset=".33" stop-color="#910020"/><stop offset="1" stop-color="#ba001c" stop-opacity="0"/></linearGradient><path fill="url(#MrbNbP29PshHWRLVH7dKri)" d="M24,41L24,41c0.147,0,0.27-0.114,0.279-0.261l0.52-7.751C24.537,32.994,24.276,33,24,33s-0.537-0.006-0.8-0.012l0.52,7.751C23.73,40.886,23.853,41,24,41z"/></svg>